<svg width="24" height="24" viewBox="0 0 24 24" fill="none" xmlns="http://www.w3.org/2000/svg">
<path d="M12.2428 1.93213C11.6068 1.93273 10.97 2.11442 10.4156 2.47682L3.12 7.20932C2.6736 7.49732 2.4 7.99652 2.4 8.52932V9.02901C2.4 9.05781 2.39988 9.09114 2.40468 9.11994H6.64781L14.0306 4.43057C14.3618 4.21937 14.558 3.87343 14.5772 3.48463C14.5916 3.10063 14.4286 2.74577 14.1262 2.51057L14.1169 2.50119L14.0691 2.47213C13.5147 2.11213 12.8788 1.93153 12.2428 1.93213ZM15.5325 3.42276V3.52776C15.5037 4.23336 15.1444 4.85762 14.5444 5.23682L8.23687 9.24463C9.29287 9.57583 10.0704 10.5692 10.08 11.7356L17.8275 6.82588C18.1683 6.60988 18.36 6.25877 18.36 5.85557C18.36 5.51957 18.2204 5.21739 17.9756 5.00619L15.5325 3.42276ZM19.32 5.87994C19.3104 6.59514 18.9508 7.25282 18.3412 7.63682L10.08 12.8737V14.5012L11.8416 15.6093L21.5428 9.52307C21.8788 9.31187 22.08 8.95198 22.08 8.55838V8.52932C22.08 7.99172 21.8112 7.49263 21.36 7.20463L19.32 5.87994ZM2.16 10.0799C1.23216 10.0799 0.479996 10.8321 0.479996 11.7599V17.0399C0.479996 17.9678 1.23216 18.7199 2.16 18.7199H7.44C8.36784 18.7199 9.12 17.9678 9.12 17.0399V11.7599C9.12 10.8321 8.36784 10.0799 7.44 10.0799H2.16ZM22.08 10.3199C22.0704 10.3247 22.0652 10.3292 22.0556 10.334L12.7444 16.1812L14.8706 17.5199C15.6674 18.0239 16.1428 18.8882 16.1428 19.829C16.1428 20.5058 15.8974 21.1247 15.4894 21.5999H19.2C20.7888 21.5999 22.08 20.3087 22.08 18.7199V10.3199ZM4.85531 11.9034C5.54939 11.9034 6.11447 12.13 6.55031 12.5812C6.98807 13.0329 7.20656 13.6275 7.20656 14.3662C7.20656 15.1251 6.98047 15.7372 6.52687 16.2018C6.07567 16.6645 5.49267 16.8956 4.77843 16.8956C4.08195 16.8956 3.51015 16.6717 3.06375 16.2224C2.61687 15.7732 2.39343 15.1866 2.39343 14.4637C2.39343 13.7 2.62046 13.0826 3.07406 12.6112C3.52766 12.1394 4.12091 11.9034 4.85531 11.9034ZM4.82531 12.854C4.43891 12.854 4.12818 12.9964 3.8925 13.2815C3.65682 13.5642 3.53812 13.9395 3.53812 14.4065C3.53812 14.8803 3.65682 15.2555 3.8925 15.5315C4.12818 15.8056 4.42996 15.9431 4.79812 15.9431C5.1778 15.9431 5.48364 15.8087 5.715 15.5418C5.94636 15.2745 6.06187 14.9033 6.06187 14.4271C6.06187 13.9308 5.94995 13.5449 5.72531 13.2684C5.50067 12.9924 5.20067 12.854 4.82531 12.854ZM10.08 15.6337V17.0399C10.08 18.4943 8.8944 19.6799 7.44 19.6799H2.58281C2.99561 20.8031 4.07478 21.5999 5.33718 21.5999H13.4156C13.8812 21.5999 14.3044 21.4175 14.6212 21.1199C14.9668 20.7983 15.1828 20.3378 15.1828 19.829C15.1828 19.2194 14.8753 18.6573 14.3569 18.3309L11.8416 16.7474L10.6275 15.9787L10.08 15.6337Z" fill="black"/>
</svg>
